<mxfile host="app.diagrams.net" agent="Mozilla/5.0 (Windows NT 10.0; Win64; x64) AppleWebKit/537.36 (KHTML, like Gecko) Chrome/130.0.0.0 Safari/537.36" version="24.8.6">
  <diagram name="Trang-1" id="GWwzEJKnEYCqDHpDhqDA">
    <mxGraphModel dx="1050" dy="603" grid="1" gridSize="10" guides="1" tooltips="1" connect="1" arrows="1" fold="1" page="1" pageScale="1" pageWidth="827" pageHeight="1169" math="0" shadow="0">
      <root>
        <mxCell id="0" />
        <mxCell id="1" parent="0" />
        <mxCell id="-J5IuUzd6AkS9W769ICX-1" value="INIT" style="ellipse;whiteSpace=wrap;html=1;aspect=fixed;" vertex="1" parent="1">
          <mxGeometry x="160" y="40" width="80" height="80" as="geometry" />
        </mxCell>
        <mxCell id="-J5IuUzd6AkS9W769ICX-8" style="edgeStyle=orthogonalEdgeStyle;rounded=0;orthogonalLoop=1;jettySize=auto;html=1;entryX=0.5;entryY=0;entryDx=0;entryDy=0;" edge="1" parent="1" source="-J5IuUzd6AkS9W769ICX-2" target="-J5IuUzd6AkS9W769ICX-3">
          <mxGeometry relative="1" as="geometry" />
        </mxCell>
        <mxCell id="-J5IuUzd6AkS9W769ICX-2" value="RED_MOD" style="ellipse;whiteSpace=wrap;html=1;aspect=fixed;" vertex="1" parent="1">
          <mxGeometry x="440" y="40" width="80" height="80" as="geometry" />
        </mxCell>
        <mxCell id="-J5IuUzd6AkS9W769ICX-9" style="edgeStyle=orthogonalEdgeStyle;rounded=0;orthogonalLoop=1;jettySize=auto;html=1;entryX=1;entryY=0.5;entryDx=0;entryDy=0;" edge="1" parent="1" source="-J5IuUzd6AkS9W769ICX-3" target="-J5IuUzd6AkS9W769ICX-4">
          <mxGeometry relative="1" as="geometry" />
        </mxCell>
        <mxCell id="-J5IuUzd6AkS9W769ICX-3" value="YEL_MOD" style="ellipse;whiteSpace=wrap;html=1;aspect=fixed;" vertex="1" parent="1">
          <mxGeometry x="440" y="240" width="80" height="80" as="geometry" />
        </mxCell>
        <mxCell id="-J5IuUzd6AkS9W769ICX-18" style="edgeStyle=orthogonalEdgeStyle;rounded=0;orthogonalLoop=1;jettySize=auto;html=1;entryX=0.5;entryY=1;entryDx=0;entryDy=0;" edge="1" parent="1" source="-J5IuUzd6AkS9W769ICX-4" target="-J5IuUzd6AkS9W769ICX-1">
          <mxGeometry relative="1" as="geometry" />
        </mxCell>
        <mxCell id="-J5IuUzd6AkS9W769ICX-4" value="GRE_MOD" style="ellipse;whiteSpace=wrap;html=1;aspect=fixed;" vertex="1" parent="1">
          <mxGeometry x="160" y="240" width="80" height="80" as="geometry" />
        </mxCell>
        <mxCell id="-J5IuUzd6AkS9W769ICX-7" value="" style="endArrow=classic;html=1;rounded=0;exitX=0.935;exitY=0.268;exitDx=0;exitDy=0;exitPerimeter=0;entryX=0.035;entryY=0.258;entryDx=0;entryDy=0;entryPerimeter=0;" edge="1" parent="1" source="-J5IuUzd6AkS9W769ICX-1" target="-J5IuUzd6AkS9W769ICX-2">
          <mxGeometry width="50" height="50" relative="1" as="geometry">
            <mxPoint x="240" y="89" as="sourcePoint" />
            <mxPoint x="440" y="89" as="targetPoint" />
          </mxGeometry>
        </mxCell>
        <mxCell id="-J5IuUzd6AkS9W769ICX-11" value="isBut1_press" style="text;html=1;align=center;verticalAlign=middle;whiteSpace=wrap;rounded=0;" vertex="1" parent="1">
          <mxGeometry x="320" y="30" width="60" height="30" as="geometry" />
        </mxCell>
        <mxCell id="-J5IuUzd6AkS9W769ICX-12" value="isBut1_press" style="text;html=1;align=center;verticalAlign=middle;whiteSpace=wrap;rounded=0;" vertex="1" parent="1">
          <mxGeometry x="490" y="160" width="60" height="30" as="geometry" />
        </mxCell>
        <mxCell id="-J5IuUzd6AkS9W769ICX-13" value="isBut1_press" style="text;html=1;align=center;verticalAlign=middle;whiteSpace=wrap;rounded=0;" vertex="1" parent="1">
          <mxGeometry x="310" y="290" width="60" height="30" as="geometry" />
        </mxCell>
        <mxCell id="-J5IuUzd6AkS9W769ICX-15" value="" style="endArrow=classic;html=1;rounded=0;exitX=1;exitY=0;exitDx=0;exitDy=0;" edge="1" parent="1" source="-J5IuUzd6AkS9W769ICX-4" target="-J5IuUzd6AkS9W769ICX-2">
          <mxGeometry width="50" height="50" relative="1" as="geometry">
            <mxPoint x="390" y="290" as="sourcePoint" />
            <mxPoint x="440" y="240" as="targetPoint" />
            <Array as="points" />
          </mxGeometry>
        </mxCell>
        <mxCell id="-J5IuUzd6AkS9W769ICX-17" value="" style="endArrow=classic;html=1;rounded=0;exitX=0;exitY=0;exitDx=0;exitDy=0;" edge="1" parent="1" source="-J5IuUzd6AkS9W769ICX-3" target="-J5IuUzd6AkS9W769ICX-1">
          <mxGeometry width="50" height="50" relative="1" as="geometry">
            <mxPoint x="390" y="290" as="sourcePoint" />
            <mxPoint x="440" y="240" as="targetPoint" />
          </mxGeometry>
        </mxCell>
        <mxCell id="-J5IuUzd6AkS9W769ICX-19" value="" style="endArrow=classic;html=1;rounded=0;entryX=1;entryY=0.5;entryDx=0;entryDy=0;exitX=0;exitY=0.5;exitDx=0;exitDy=0;" edge="1" parent="1" source="-J5IuUzd6AkS9W769ICX-2" target="-J5IuUzd6AkS9W769ICX-1">
          <mxGeometry width="50" height="50" relative="1" as="geometry">
            <mxPoint x="220" y="200" as="sourcePoint" />
            <mxPoint x="270" y="150" as="targetPoint" />
          </mxGeometry>
        </mxCell>
        <mxCell id="-J5IuUzd6AkS9W769ICX-20" value="isBut3_press" style="text;html=1;align=center;verticalAlign=middle;whiteSpace=wrap;rounded=0;" vertex="1" parent="1">
          <mxGeometry x="320" y="80" width="60" height="30" as="geometry" />
        </mxCell>
        <mxCell id="-J5IuUzd6AkS9W769ICX-21" value="isBut3_press" style="text;html=1;align=center;verticalAlign=middle;whiteSpace=wrap;rounded=0;" vertex="1" parent="1">
          <mxGeometry x="130" y="130" width="60" height="30" as="geometry" />
        </mxCell>
        <mxCell id="-J5IuUzd6AkS9W769ICX-22" value="isBut1_press" style="text;html=1;align=center;verticalAlign=middle;whiteSpace=wrap;rounded=0;rotation=0;" vertex="1" parent="1">
          <mxGeometry x="130" y="170" width="60" height="30" as="geometry" />
        </mxCell>
        <mxCell id="-J5IuUzd6AkS9W769ICX-25" value="isBut3_press" style="text;html=1;align=center;verticalAlign=middle;whiteSpace=wrap;rounded=0;rotation=35;" vertex="1" parent="1">
          <mxGeometry x="380" y="190" width="60" height="30" as="geometry" />
        </mxCell>
      </root>
    </mxGraphModel>
  </diagram>
</mxfile>
